<svg
    xmlns="http://www.w3.org/2000/svg"
    viewBox="0 0 760 150"
    role="img"
    aria-labelledby="title desc"
>

    <title id="title">
        RRNOVA TECH
    </title>

    <desc id="desc">
        RRNOVA TECH technology solutions logo
    </desc>


    <!-- ================= SYMBOL ================= -->

    <g transform="translate(15 15)">

        <circle
            cx="60"
            cy="60"
            r="53"
            fill="none"
            stroke="#102C63"
            stroke-width="7"
            stroke-dasharray="250 80"
            transform="rotate(-25 60 60)"
        />

        <circle
            cx="60"
            cy="60"
            r="42"
            fill="none"
            stroke="#315FE7"
            stroke-width="5"
            stroke-dasharray="100 45"
            transform="rotate(35 60 60)"
        />

        <path
            d="M38 91
               V29
               H63
               C79 29 88 37 88 49
               C88 59 82 66 72 69
               L91 91
               H73
               L55 71
               H53
               V91
               Z

               M53 42
               V59
               H62
               C69 59 73 55 73 50
               C73 45 69 42 62 42
               Z"

            fill="#102C63"
        />

        <circle
            cx="100"
            cy="23"
            r="7"
            fill="#735BFF"
        />

    </g>


    <!-- ================= WORDMARK ================= -->

    <text
        x="145"
        y="68"
        font-family="Arial, Helvetica, sans-serif"
        font-size="50"
        font-weight="800"
        letter-spacing="3"
        fill="#102C63"
    >
        RRNOVA
    </text>

    <text
        x="145"
        y="110"
        font-family="Arial, Helvetica, sans-serif"
        font-size="29"
        font-weight="700"
        letter-spacing="7"
        fill="#315FE7"
    >
        TECH
    </text>


    <!-- ================= TAGLINE ================= -->

    <text
        x="350"
        y="108"
        font-family="Arial, Helvetica, sans-serif"
        font-size="13"
        font-weight="600"
        letter-spacing="2.5"
        fill="#6B7B96"
    >
        TECHNOLOGY SOLUTIONS
    </text>

</svg>